# xmcd CD database file
#
# Track frame offsets:
#	150
#	26222
#	71535
#	138202
#	152047
#	157877
#	169507
#	214020
#	228572
#	279745
#	322295
#
# Disc length: 4482 seconds
#
# Revision: 0
# Processed by: cddbd v1.5.1PL0 Copyright (c) Steve Scherf et al.
# Submitted via: CDex 1.51
#
DISCID=9a11800b
DTITLE=光栄 - 三國志ＤＸ７三國志満漢全席フォーエバー
DYEAR=1996
DGENRE=アニメ
TTITLE0=オープニング〜冥界三國志・あれから４５年〜
TTITLE1=新・三國軍師アドリブ対決
TTITLE2=劉備の部屋フォーエバー　お客様／佐々木望さん
TTITLE3=三國志のテーマ
TTITLE4=ソーソールービ
TTITLE5=新春特別対談「ふたり帝」
TTITLE6=突然リポーター〜仲達さんのお宅拝見〜
TTITLE7=諸葛亮征嵐伝のテーマ
TTITLE8=劉禅の部屋　お客様／森川智之＆関智一さん
TTITLE9=漢王朝立三國高等学校スペシャル〜１年Ｃ組・趙雲先生〜
TTITLE10=第３部予告
EXTD=YEAR: 1996/2/25
EXTT0=
EXTT1=
EXTT2=
EXTT3=
EXTT4=
EXTT5=
EXTT6=
EXTT7=
EXTT8=
EXTT9=
EXTT10=
PLAYORDER=
